<svg preserveAspectRatio="none" width="100%" height="100%" overflow="visible" style="display: block;" viewBox="0 0 225 73.9286" fill="none" xmlns="http://www.w3.org/2000/svg">
<g id="moc 2" clip-path="url(#clip0_0_6)">
<path id="Vector" d="M19.85 64.3423C9.45 64.3423 1.6 56.6328 1.6 46.4702C1.6 36.3077 9.45 28.5981 19.85 28.5981C28.75 28.5981 35.85 34.3052 37.4 42.3651H29.15C27.85 38.6105 24.25 36.0574 19.85 36.0574C14 36.0574 9.55 40.5129 9.55 46.4702C9.55 52.4276 14 56.8831 19.85 56.8831C24.25 56.8831 27.85 54.3299 29.15 50.5753H37.4C35.85 58.6353 28.75 64.3423 19.85 64.3423ZM49.8648 64.3423C44.2148 64.3423 40.4648 60.5376 40.4648 54.7304V38.21H47.7648V52.5277C47.7648 55.3812 49.5648 57.2836 52.3148 57.2836C55.2648 57.2836 57.2648 55.3312 57.2648 52.4276V38.21H64.5648V54.6303C64.5648 55.9319 65.3148 56.6828 66.6148 56.6828H67.1148V63.7416H65.0648C61.5648 63.7416 59.2148 62.5901 58.1148 60.2873C56.1148 62.9406 53.3148 64.3423 49.8648 64.3423ZM68.4384 63.7416L72.3384 44.0673C70.9384 43.1161 70.0884 41.414 70.0884 39.5617C70.0884 36.8583 71.9884 35.0061 74.8384 35.0061C77.5384 35.0061 79.3884 36.7082 79.6884 38.9609L95.4384 40.7632V42.5153C92.6884 46.32 91.2384 49.6241 91.2384 52.4276C91.2384 55.181 92.5884 56.6828 95.1384 56.6828H96.2384V63.7416H94.4884C87.3884 63.7416 83.7384 59.8367 83.7384 53.3287C83.7384 51.126 84.1884 48.9233 85.2384 46.6705L78.9884 45.8194L75.6384 63.7416H68.4384ZM102.722 35.0561C100.172 35.0561 98.2224 33.1538 98.2224 30.5505C98.2224 27.9974 100.172 26.095 102.722 26.095C105.322 26.095 107.272 27.9974 107.272 30.5505C107.272 33.1538 105.322 35.0561 102.722 35.0561ZM99.0724 63.7416V38.21H106.372V63.7416H99.0724ZM123.503 64.3423C115.653 64.3423 109.753 58.5852 109.753 50.9758C109.753 43.3664 115.653 37.6093 123.503 37.6093C131.353 37.6093 137.253 43.3664 137.253 50.9758C137.253 58.5852 131.353 64.3423 123.503 64.3423ZM123.503 57.2836C127.103 57.2836 129.753 54.5802 129.753 50.9758C129.753 47.3713 127.103 44.668 123.503 44.668C119.903 44.668 117.253 47.3713 117.253 50.9758C117.253 54.5802 119.903 57.2836 123.503 57.2836ZM153.881 64.3423C150.081 64.3423 146.731 62.8905 144.481 60.6377L143.181 63.7416H135.681L146.331 38.21H154.681C155.431 44.7681 164.481 44.5178 164.481 53.8293C164.481 60.037 160.531 64.3423 153.881 64.3423ZM156.981 53.6791C156.981 50.5753 152.631 49.4739 150.381 45.9195L146.881 54.5802C148.081 56.2323 150.131 57.2836 152.481 57.2836C155.131 57.2836 156.981 55.8819 156.981 53.6791ZM171.011 35.0561C168.461 35.0561 166.511 33.1538 166.511 30.5505C166.511 27.9974 168.461 26.095 171.011 26.095C173.611 26.095 175.561 27.9974 175.561 30.5505C175.561 33.1538 173.611 35.0561 171.011 35.0561ZM167.361 63.7416V38.21H174.661V63.7416H167.361ZM190.992 63.7416C184.942 63.7416 181.792 60.888 181.792 55.4313V44.8682H177.992V38.21H180.092C181.492 38.21 182.192 37.5091 182.192 36.1074V31.5017H189.092V38.21H194.642V44.8682H189.092V54.2298C189.092 56.032 190.192 57.0833 192.092 57.0833H194.642V63.7416H190.992ZM207.269 63.0407C201.619 63.0407 197.869 59.236 197.869 53.4288V38.21H205.169V51.2261C205.169 54.0796 206.969 55.9319 209.719 55.9319C212.669 55.9319 214.669 54.0296 214.669 51.126V38.21H221.969V62.1896C221.969 69.2484 217.019 73.8541 209.919 73.8541C203.769 73.8541 199.319 70.3998 197.969 64.8429H205.469C206.219 66.495 207.969 67.4962 209.969 67.4962C212.719 67.4962 214.669 65.5939 214.669 62.5401V59.9369C212.769 61.9894 210.269 63.0407 207.269 63.0407Z" fill="url(#paint0_linear_0_6)"/>
<path id="Vector_2" d="M17.6977 8.25439C18.6899 8.25439 19.5736 8.46395 20.3488 8.88307C21.124 9.28668 21.7364 9.89982 22.186 10.7226C22.6357 11.5453 22.8605 12.5465 22.8605 13.7263V21.2472H20.7674V14.029C20.7674 12.7561 20.4496 11.7859 19.814 11.1184C19.1938 10.4354 18.3488 10.0939 17.2791 10.0939C16.1783 10.0939 15.3023 10.4509 14.6512 11.165C14 11.8635 13.6744 12.8802 13.6744 14.2152V21.2472H11.5814V14.029C11.5814 12.7561 11.2636 11.7859 10.6279 11.1184C10.0078 10.4354 9.16279 10.0939 8.09302 10.0939C6.99224 10.0939 6.11628 10.4509 5.46512 11.165C4.81395 11.8635 4.48837 12.8802 4.48837 14.2152V21.2472H2.37209V8.48723H4.48837V10.3267C4.90698 9.65923 5.46512 9.14697 6.16279 8.78993C6.87596 8.43289 7.65892 8.25439 8.51163 8.25439C9.5814 8.25439 10.5271 8.495 11.3488 8.97621C12.1706 9.45741 12.7829 10.1637 13.186 11.0951C13.5426 10.1948 14.1318 9.49624 14.9535 8.99949C15.7752 8.50275 16.6899 8.25439 17.6977 8.25439ZM25.0761 14.8206C25.0761 13.5167 25.3397 12.3758 25.8668 11.3978C26.394 10.4043 27.1149 9.63595 28.0296 9.09263C28.9599 8.54932 29.991 8.27767 31.1227 8.27767C32.239 8.27767 33.2078 8.51829 34.0297 8.99949C34.8515 9.4807 35.4637 10.0861 35.8669 10.8157V8.48723H38.0064V21.2472H35.8669V18.8722C35.4483 19.6173 34.8204 20.2382 33.9831 20.7349C33.1613 21.2161 32.2003 21.4567 31.0994 21.4567C29.9677 21.4567 28.9443 21.1773 28.0296 20.6185C27.1149 20.0597 26.394 19.2758 25.8668 18.2668C25.3397 17.2578 25.0761 16.1091 25.0761 14.8206ZM35.8669 14.8439C35.8669 13.8815 35.673 13.0432 35.2855 12.3292C34.898 11.6151 34.3706 11.0718 33.7041 10.6993C33.0529 10.3112 32.332 10.1172 31.5413 10.1172C30.7506 10.1172 30.0297 10.3034 29.3785 10.676C28.7273 11.0485 28.2079 11.5919 27.8203 12.3059C27.4327 13.02 27.2389 13.8582 27.2389 14.8206C27.2389 15.7986 27.4327 16.6524 27.8203 17.3819C28.2079 18.096 28.7273 18.6471 29.3785 19.0352C30.0297 19.4077 30.7506 19.594 31.5413 19.594C32.332 19.594 33.0529 19.4077 33.7041 19.0352C34.3706 18.6471 34.898 18.096 35.2855 17.3819C35.673 16.6524 35.8669 15.8064 35.8669 14.8439ZM40.3267 14.8206C40.3267 13.5167 40.5904 12.3758 41.1174 11.3978C41.6448 10.4043 42.3657 9.63595 43.2802 9.09263C44.2105 8.54932 45.2494 8.27767 46.3965 8.27767C47.389 8.27767 48.3113 8.51052 49.164 8.97621C50.0169 9.42639 50.668 10.024 51.1174 10.7691V4.01659H53.257V21.2472H51.1174V18.8489C50.6988 19.6095 50.0788 20.2382 49.257 20.7349C48.4355 21.2161 47.4741 21.4567 46.3733 21.4567C45.2416 21.4567 44.2105 21.1773 43.2802 20.6185C42.3657 20.0597 41.6448 19.2758 41.1174 18.2668C40.5904 17.2578 40.3267 16.1091 40.3267 14.8206ZM51.1174 14.8439C51.1174 13.8815 50.9238 13.0432 50.536 12.3292C50.1485 11.6151 49.6215 11.0718 48.9547 10.6993C48.3035 10.3112 47.5826 10.1172 46.7919 10.1172C46.0012 10.1172 45.2802 10.3034 44.6291 10.676C43.9779 11.0485 43.4587 11.5919 43.0709 12.3059C42.6834 13.02 42.4895 13.8582 42.4895 14.8206C42.4895 15.7986 42.6834 16.6524 43.0709 17.3819C43.4587 18.096 43.9779 18.6471 44.6291 19.0352C45.2802 19.4077 46.0012 19.594 46.7919 19.594C47.5826 19.594 48.3035 19.4077 48.9547 19.0352C49.6215 18.6471 50.1485 18.096 50.536 17.3819C50.9238 16.6524 51.1174 15.8064 51.1174 14.8439ZM67.9962 14.3782C67.9962 14.7818 67.973 15.2087 67.9265 15.6589H57.7404C57.818 16.9163 58.2442 17.902 59.0195 18.616C59.8102 19.3146 60.7637 19.6638 61.8799 19.6638C62.7948 19.6638 63.5544 19.4543 64.159 19.0352C64.7791 18.6005 65.2134 18.0261 65.4613 17.3121H67.7404C67.3994 18.5384 66.7172 19.5396 65.6939 20.3158C64.6706 21.0764 63.3994 21.4567 61.8799 21.4567C60.6706 21.4567 59.5855 21.1851 58.6241 20.6418C57.6785 20.0985 56.9343 19.3301 56.3916 18.3366C55.8488 17.3276 55.5776 16.1634 55.5776 14.8439C55.5776 13.5245 55.8413 12.368 56.3683 11.3745C56.8954 10.3811 57.632 9.62041 58.5776 9.09263C59.539 8.54932 60.6395 8.27767 61.8799 8.27767C63.0892 8.27767 64.159 8.54157 65.0892 9.06935C66.0195 9.59712 66.7326 10.3267 67.2288 11.2581C67.7404 12.174 67.9962 13.214 67.9962 14.3782ZM65.8102 13.9358C65.8102 13.1286 65.632 12.4378 65.2753 11.8635C64.9186 11.2736 64.4302 10.8312 63.8102 10.5363C63.2055 10.2258 62.5311 10.0706 61.7869 10.0706C60.7172 10.0706 59.8023 10.4121 59.0427 11.0951C58.2985 11.7781 57.8721 12.725 57.7637 13.9358H65.8102ZM81.6174 21.4567C80.4238 21.4567 79.3384 21.1851 78.3616 20.6418C77.4006 20.0985 76.6407 19.3301 76.0826 18.3366C75.5401 17.3276 75.2686 16.1634 75.2686 14.8439C75.2686 13.54 75.5477 12.3913 76.1058 11.3978C76.6797 10.3888 77.4547 9.62041 78.4314 9.09263C79.4081 8.54932 80.5012 8.27767 81.7105 8.27767C82.9198 8.27767 84.0128 8.54932 84.9895 9.09263C85.9663 9.62041 86.7337 10.3811 87.2919 11.3745C87.8657 12.368 88.1523 13.5245 88.1523 14.8439C88.1523 16.1634 87.8579 17.3276 87.2686 18.3366C86.6951 19.3301 85.9122 20.0985 84.9198 20.6418C83.9276 21.1851 82.8268 21.4567 81.6174 21.4567ZM81.6174 19.594C82.3773 19.594 83.0904 19.4155 83.757 19.0584C84.4238 18.7014 84.9587 18.1658 85.3616 17.4518C85.7802 16.7377 85.9895 15.8684 85.9895 14.8439C85.9895 13.8194 85.7881 12.9501 85.3849 12.2361C84.982 11.522 84.4547 10.9942 83.8035 10.6527C83.1523 10.2957 82.4471 10.1172 81.6872 10.1172C80.9122 10.1172 80.1988 10.2957 79.5477 10.6527C78.9122 10.9942 78.4006 11.522 78.0128 12.2361C77.6253 12.9501 77.4314 13.8194 77.4314 14.8439C77.4314 15.884 77.6174 16.761 77.9895 17.4751C78.3773 18.1891 78.889 18.7247 79.5244 19.0817C80.1602 19.4232 80.8579 19.594 81.6174 19.594ZM95.6558 10.2336H92.9814V21.2472H90.8651V10.2336H89.214V8.48723H90.8651V7.57913C90.8651 6.151 91.2297 5.11097 91.9581 4.459C92.7023 3.79152 93.8884 3.45776 95.5163 3.45776V5.22739C94.586 5.22739 93.9273 5.41367 93.5395 5.78622C93.1674 6.14326 92.9814 6.74089 92.9814 7.57913V8.48723H95.6558V10.2336Z" fill="var(--fill-0, white)"/>
</g>
<defs>
<linearGradient id="paint0_linear_0_6" x1="-5.21362e-08" y1="47.7334" x2="225" y2="47.7334" gradientUnits="userSpaceOnUse">
<stop stop-color="#5439DF"/>
<stop offset="0.341346" stop-color="#8C07F8"/>
<stop offset="0.625" stop-color="#6646A9"/>
<stop offset="1" stop-color="#4FA4EF"/>
</linearGradient>
<clipPath id="clip0_0_6">
<rect width="225" height="73.9286" fill="white"/>
</clipPath>
</defs>
</svg>
