<svg width="34" height="34" viewBox="0 0 34 34" fill="none" xmlns="http://www.w3.org/2000/svg">
<g clip-path="url(#clip0_985_196)">
<path d="M23.5733 22.1302V17.8118C23.5733 8.17725 19.4978 2.35778 17.7932 0.34574C17.6094 0.126922 17.3391 0.00219538 17.0547 7.20065e-06C16.7691 -0.00108689 16.4989 0.122546 16.3118 0.339176C14.5787 2.34683 10.4212 8.1685 10.4212 17.8118V22.1313L9.62358 22.6685C8.08638 23.7057 7.16406 25.4398 7.16406 27.2954V32.4497C7.16406 32.7549 7.33255 33.0372 7.6017 33.1827C7.87194 33.3271 8.19907 33.3107 8.4529 33.14L11.0437 31.4147C11.7713 30.9311 12.6247 30.6718 13.4989 30.6718H15.4037V33.1696C15.4037 33.6291 15.7757 34.0011 16.2341 34.0011H17.7592C18.2177 34.0011 18.5897 33.6291 18.5897 33.1696V30.6718H20.4934C21.3676 30.6718 22.222 30.9289 22.9507 31.4158L25.5393 33.14C25.7932 33.3107 26.1203 33.3271 26.3905 33.1827C26.6597 33.0372 26.8282 32.7549 26.8282 32.4497V27.2954C26.8282 25.442 25.9048 23.7079 24.3687 22.6685L23.5733 22.1302ZM16.9978 15.3643C15.4157 15.3643 14.1312 14.081 14.1312 12.4989C14.1312 10.9158 15.4157 9.63349 16.9978 9.63349C18.5787 9.63349 19.8632 10.9158 19.8632 12.4989C19.8632 14.081 18.5787 15.3643 16.9978 15.3643Z" fill="white"/>
</g>
<defs>
<clipPath id="clip0_985_196">
<rect width="34" height="34" fill="white"/>
</clipPath>
</defs>
</svg>
