<svg width="32" height="32" viewBox="0 0 32 32" fill="none" xmlns="http://www.w3.org/2000/svg">
<path fill-rule="evenodd" clip-rule="evenodd" d="M7.05458 7.05849C7.57529 6.5378 8.4195 6.5378 8.94021 7.05849L15.9974 14.1157L23.0546 7.05849C23.5753 6.5378 24.4195 6.5378 24.9402 7.05849C25.4609 7.5792 25.4609 8.42341 24.9402 8.94412L17.883 16.0013L24.9402 23.0585C25.4609 23.5792 25.4609 24.4234 24.9402 24.9441C24.4195 25.4648 23.5753 25.4648 23.0546 24.9441L15.9974 17.8869L8.94021 24.9441C8.4195 25.4648 7.57529 25.4648 7.05458 24.9441C6.53389 24.4234 6.53389 23.5792 7.05458 23.0585L14.1118 16.0013L7.05458 8.94412C6.53389 8.42341 6.53389 7.5792 7.05458 7.05849Z" fill="white"/>
</svg>
