<svg preserveAspectRatio="none" width="100%" height="100%" overflow="visible" style="display: block;" viewBox="0 0 18.6666 18.6666" fill="none" xmlns="http://www.w3.org/2000/svg">
<g id="SVGRepo_iconCarrier">
<path id="Vector" fill-rule="evenodd" clip-rule="evenodd" d="M0.39052 0.39052C0.911227 -0.130173 1.75544 -0.130173 2.27615 0.39052L9.33333 7.44773L16.3905 0.39052C16.9112 -0.130173 17.7555 -0.130173 18.2761 0.39052C18.7968 0.911227 18.7968 1.75544 18.2761 2.27615L11.2189 9.33333L18.2761 16.3905C18.7968 16.9112 18.7968 17.7555 18.2761 18.2761C17.7555 18.7968 16.9112 18.7968 16.3905 18.2761L9.33333 11.2189L2.27615 18.2761C1.75544 18.7968 0.911227 18.7968 0.39052 18.2761C-0.130173 17.7555 -0.130173 16.9112 0.39052 16.3905L7.44773 9.33333L0.39052 2.27615C-0.130173 1.75544 -0.130173 0.911227 0.39052 0.39052Z" fill="var(--fill-0, white)"/>
</g>
</svg>
