<svg width="34" height="34" viewBox="0 0 34 34" fill="none" xmlns="http://www.w3.org/2000/svg">
<g clip-path="url(#clip0_985_321)">
<path d="M29.2734 2.57928C29.274 2.13808 29.3977 1.70578 29.6305 1.331C29.8633 0.956225 30.196 0.653828 30.5913 0.457816C30.9866 0.261803 31.4287 0.179949 31.868 0.221456C32.3072 0.262964 32.7262 0.426188 33.0777 0.692773C33.4293 0.959359 33.6995 1.31874 33.858 1.73049C34.0165 2.14225 34.057 2.59005 33.9749 3.02356C33.8928 3.45706 33.6914 3.85907 33.3934 4.18438C33.0953 4.50969 32.7124 4.74539 32.2877 4.865V10.9721H31.0234V4.865C30.5238 4.72446 30.0832 4.42575 29.7677 4.01365C29.4522 3.60155 29.2788 3.09827 29.2734 2.57928Z" fill="white"/>
<path d="M21.954 1.98047V8.18047C26.0183 9.94476 28.8754 13.6876 28.8754 18.0733C28.8754 24.0948 23.4469 27.5376 16.8183 27.5376C10.1897 27.5376 4.73259 24.059 4.73259 18.0733C4.73259 13.7233 7.58973 9.98047 11.6183 8.21618V1.98047C6.0683 4.12333 3.04688 9.83761 3.04688 16.4876C3.04688 25.059 9.20402 29.9162 16.8183 29.9162C24.4326 29.9162 30.5969 25.0519 30.5969 16.4876C30.5612 9.81618 27.504 4.13047 21.954 1.98047Z" fill="white"/>
<path d="M21.0949 7.8347V1.67756C19.7042 1.25945 18.2613 1.0406 16.8092 1.02756C15.3554 1.01948 13.9094 1.23879 12.5234 1.67756V7.8347C15.3087 6.85394 18.3454 6.85394 21.1306 7.8347H21.0949Z" fill="white"/>
<path d="M14.1615 9.37734C12.82 9.72886 11.5637 10.3488 10.4686 11.1996C9.37349 12.0504 8.46227 13.1144 7.79003 14.3273C7.76113 14.3833 7.7449 14.4448 7.7425 14.5077C7.7401 14.5706 7.75158 14.6333 7.77612 14.6913C7.80067 14.7492 7.83768 14.8011 7.88453 14.8431C7.93138 14.8851 7.98691 14.9163 8.04718 14.9345L9.94003 15.5345C10.0384 15.5597 10.1423 15.5525 10.2363 15.5139C10.3303 15.4752 10.4092 15.4073 10.4615 15.3202C10.9167 14.4587 11.5451 13.7005 12.3071 13.0933C13.0692 12.4861 13.9486 12.0429 14.89 11.7916C14.9929 11.7548 15.0798 11.6833 15.1358 11.5895C15.1918 11.4957 15.2135 11.3854 15.1972 11.2773L14.7186 9.68448C14.7059 9.62551 14.6808 9.56996 14.6448 9.52156C14.6088 9.47316 14.5628 9.43305 14.51 9.40393C14.4572 9.37481 14.3988 9.35737 14.3386 9.35278C14.2785 9.3482 14.2181 9.35657 14.1615 9.37734Z" fill="white"/>
<path d="M0 18.2916V19.1488C0 19.7171 0.225764 20.2621 0.627628 20.664C1.02949 21.0659 1.57454 21.2916 2.14286 21.2916H2.85714C2.54718 20.3119 2.34597 19.3011 2.25714 18.2773L0 18.2916Z" fill="white"/>
<path d="M2.15848 16.4859C2.15052 14.9213 2.32309 13.361 2.67277 11.8359H2.15848C1.59016 11.8359 1.04512 12.0617 0.643253 12.4636C0.241389 12.8654 0.015625 13.4105 0.015625 13.9788V17.4288H2.15848V16.4859Z" fill="white"/>
<path d="M30.7344 21.3086H31.4487C32.017 21.3086 32.562 21.0828 32.9639 20.681C33.3658 20.2791 33.5915 19.7341 33.5915 19.1657V18.3086H31.3344C31.2445 19.3275 31.0433 20.3335 30.7344 21.3086Z" fill="white"/>
<path d="M31.4205 11.8363H30.9062C31.2559 13.3613 31.4285 14.9217 31.4205 16.4863C31.4267 16.8012 31.4124 17.1161 31.3777 17.4291H33.5205V13.9863C33.5323 13.705 33.4864 13.4244 33.3856 13.1615C33.2849 12.8987 33.1315 12.6592 32.9348 12.4578C32.7381 12.2565 32.5023 12.0974 32.2419 11.9906C31.9815 11.8837 31.702 11.8312 31.4205 11.8363Z" fill="white"/>
<path d="M27.0387 27.6719C24.1521 30.0327 20.5168 31.2842 16.7887 31.2004C13.063 31.2825 9.43049 30.0311 6.5458 27.6719L5.9458 28.279C5.86892 28.3489 5.82167 28.4455 5.8137 28.5491C5.80573 28.6527 5.83766 28.7554 5.90294 28.8362C8.4458 32.0647 12.3315 33.7862 16.7887 33.7862C21.2458 33.7862 25.1387 32.0647 27.6815 28.8362C27.7485 28.7561 27.7815 28.653 27.7735 28.5489C27.7655 28.4448 27.7171 28.3479 27.6387 28.279L27.0387 27.6719Z" fill="white"/>
</g>
<defs>
<clipPath id="clip0_985_321">
<rect width="34" height="34" fill="white"/>
</clipPath>
</defs>
</svg>
