<svg width="34" height="34" viewBox="0 0 34 34" fill="none" xmlns="http://www.w3.org/2000/svg">
<path fill-rule="evenodd" clip-rule="evenodd" d="M12.7474 15.5824C11.965 15.5824 11.3307 16.2166 11.3307 16.9991C11.3307 17.7815 11.965 18.4157 12.7474 18.4157H21.2474C22.0298 18.4157 22.6641 17.7815 22.6641 16.9991C22.6641 16.2166 22.0298 15.5824 21.2474 15.5824H12.7474ZM12.7474 19.8324C11.965 19.8324 11.3307 20.4666 11.3307 21.2491C11.3307 22.0315 11.965 22.6657 12.7474 22.6657H21.2474C22.0298 22.6657 22.6641 22.0315 22.6641 21.2491C22.6641 20.4666 22.0298 19.8324 21.2474 19.8324H12.7474ZM17.6802 2.83223C18.6419 2.83075 19.4953 2.82945 20.2835 3.15595C21.0717 3.48245 21.6744 4.08686 22.3532 4.76789C23.6985 6.11728 25.0459 7.46464 26.3953 8.80989C27.0763 9.48883 27.6808 10.0914 28.0072 10.8796C28.3337 11.6679 28.3324 12.5213 28.3309 13.483C28.3255 17.0472 28.3307 20.6114 28.3307 24.1757C28.3309 25.4316 28.3309 26.5137 28.2144 27.3801C28.0895 28.3087 27.808 29.199 27.0859 29.921C26.364 30.643 25.4737 30.9246 24.5451 31.0494C23.6785 31.1659 22.5965 31.1659 21.3406 31.1657H12.6542C11.3983 31.1659 10.3162 31.1659 9.4497 31.0494C8.52106 30.9246 7.6309 30.643 6.90886 29.921C6.18684 29.199 5.9053 28.3087 5.78045 27.3801C5.66394 26.5137 5.664 25.4316 5.66407 24.1757L5.66408 9.91577C5.66408 9.88458 5.66407 9.85348 5.66407 9.82251C5.664 8.56665 5.66394 7.48459 5.78045 6.61806C5.9053 5.68942 6.18684 4.79925 6.90888 4.07724C7.63089 3.3552 8.52106 3.07365 9.4497 2.9488C10.3162 2.8323 11.3983 2.83235 12.6542 2.83243C14.3295 2.83252 16.0049 2.8348 17.6802 2.83223Z" fill="white"/>
</svg>
