<svg width="34" height="34" viewBox="0 0 34 34" fill="none" xmlns="http://www.w3.org/2000/svg">
<path d="M11.2201 24.3022C11.2734 24.7964 11.2201 25.3104 11.2201 25.3104H22.0956C22.0956 25.3104 22.0956 24.8092 22.0956 24.1536C24.7646 23.7356 29.9016 19.375 29.9016 19.375H3.4375C3.4375 19.375 7.64093 23.6993 11.2201 24.3022Z" fill="white"/>
<path d="M20.5144 8.69531C18.8393 8.69531 14.1602 8.69531 12.9039 8.69531C11.6447 8.69531 9.83594 10.9506 9.83594 10.9506H23.5092C23.5092 10.9506 22.1903 8.69531 20.5144 8.69531Z" fill="white"/>
<path d="M26.366 12.0195H7.46265L0 18.1619H34L26.366 12.0195ZM10.1019 16.501C8.94295 16.501 8.00301 15.9236 8.00301 15.2126C8.00301 14.4995 8.94295 13.9215 10.1019 13.9215C11.2615 13.9215 12.2008 14.4995 12.2008 15.2126C12.2008 15.9215 11.2615 16.501 10.1019 16.501ZM17.0007 16.501C15.8411 16.501 14.9018 15.9236 14.9018 15.2126C14.9018 14.4995 15.8411 13.9215 17.0007 13.9215C18.1604 13.9215 19.0982 14.4995 19.0982 15.2126C19.0982 15.9215 18.1604 16.501 17.0007 16.501ZM23.9984 16.3815C22.8387 16.3815 21.8995 15.8042 21.8995 15.091C21.8995 14.3793 22.8387 13.8013 23.9984 13.8013C25.1573 13.8013 26.0972 14.3793 26.0972 15.091C26.0972 15.8028 25.1573 16.3815 23.9984 16.3815Z" fill="white"/>
</svg>
