<svg width="34" height="34" viewBox="0 0 34 34" fill="none" xmlns="http://www.w3.org/2000/svg">
<path d="M25.4713 3.68506C26.1277 3.31731 26.5564 3.07894 26.8971 2.94305C27.218 2.8151 27.3585 2.82162 27.4543 2.84648C27.5488 2.87104 27.6715 2.93202 27.8816 3.19615C28.1057 3.47793 28.3535 3.89103 28.7327 4.52844L30.2966 7.1564C30.6759 7.794 30.9207 8.20842 31.06 8.53716C31.1908 8.84599 31.1808 8.97348 31.1583 9.05546C31.1352 9.13869 31.0764 9.25623 30.8015 9.46207C30.5102 9.68015 30.0834 9.92103 29.4267 10.2889L23.8564 13.4091C23.235 13.7571 22.8331 13.9805 22.5147 14.1073C22.2163 14.226 22.0946 14.2161 22.0176 14.1957C21.9405 14.1753 21.8301 14.1239 21.6318 13.8738C21.4203 13.6069 21.1853 13.2151 20.8235 12.6071L19.1532 9.80034C18.7816 9.17581 18.5425 8.77087 18.4063 8.44983C18.2784 8.1485 18.2886 8.02608 18.3094 7.94906C18.3304 7.87205 18.3835 7.76101 18.647 7.56314C18.9275 7.35233 19.3398 7.11963 19.978 6.76213L25.4713 3.68506Z" fill="white"/>
<path d="M12.2421 11.9715L17.1286 9.23438C17.3082 9.60706 17.5587 10.028 17.8421 10.5043L19.5623 13.3948C19.8218 13.831 20.0534 14.2202 20.2767 14.5384L18.0852 15.7659L24.0012 29.6337C24.2409 30.1955 23.9738 30.8428 23.4045 31.0794C22.8352 31.316 22.1794 31.0523 21.9397 30.4905L17.0056 18.9241L12.0714 30.4905C11.8317 31.0523 11.1759 31.316 10.6066 31.0794C10.0373 30.8428 9.77011 30.1955 10.0098 29.6337L15.2477 17.3554C14.6776 17.6745 14.2995 17.8823 13.9969 18.0027C13.6986 18.1214 13.5768 18.1115 13.4998 18.0911C13.4228 18.0707 13.3123 18.0193 13.1141 17.7692C12.9025 17.5023 12.6675 17.1105 12.3057 16.5026L11.4174 15.0097C11.0458 14.3852 10.8066 13.9803 10.6704 13.6592C10.5425 13.3579 10.5527 13.2355 10.5736 13.1585C10.5945 13.0814 10.6477 12.9704 10.9111 12.7725C11.1917 12.5617 11.6039 12.329 12.2421 11.9715Z" fill="white"/>
<path d="M9.39063 14.4414L4.58119 17.1353C3.92449 17.5032 3.49764 17.7441 3.20637 17.9622C2.93144 18.1681 2.87257 18.2855 2.8496 18.3688C2.82694 18.4509 2.81706 18.5784 2.94788 18.8872C3.08714 19.2159 3.33187 19.6302 3.7113 20.2679C4.0906 20.9052 4.33829 21.3183 4.5624 21.6001C4.77249 21.8643 4.89526 21.9252 4.98977 21.9499C5.08544 21.9747 5.22596 21.9812 5.54684 21.8533C5.8876 21.7174 6.31629 21.479 6.9728 21.1112L11.757 18.4313C11.5335 18.113 11.3018 17.7235 11.042 17.2869L10.1039 15.7105C9.8206 15.2345 9.57025 14.8138 9.39063 14.4414Z" fill="white"/>
</svg>
